<svg width="48" height="49" viewBox="0 0 48 49" fill="none" xmlns="http://www.w3.org/2000/svg">
<path fill-rule="evenodd" clip-rule="evenodd" d="M2 24.6846C2 12.5343 11.8497 2.68457 24 2.68457C36.1503 2.68457 46 12.5343 46 24.6846C46 36.8348 36.1503 46.6846 24 46.6846C11.8497 46.6846 2 36.8348 2 24.6846ZM22 34.1846V21.013L16.4142 26.5988C15.6332 27.3798 14.3668 27.3798 13.5858 26.5988C12.8047 25.8177 12.8047 24.5514 13.5858 23.7704L22.5989 14.7574C22.7804 14.5792 22.9958 14.4353 23.2344 14.3363C23.9594 14.0364 24.8262 14.1824 25.4155 14.7716L34.4142 23.7704C35.1953 24.5514 35.1953 25.8177 34.4142 26.5988C33.6332 27.3798 32.3668 27.3798 31.5858 26.5988L26 21.013V34.1846C26 35.2891 25.1046 36.1846 24 36.1846C22.8954 36.1846 22 35.2891 22 34.1846Z" fill="#999999"/>
</svg>
