<svg width="20" height="20" viewBox="0 0 20 20" fill="none" xmlns="http://www.w3.org/2000/svg">
<path fill-rule="evenodd" clip-rule="evenodd" d="M10.0003 18.3337C14.6027 18.3337 18.3337 14.6027 18.3337 10.0003C18.3337 5.39795 14.6027 1.66699 10.0003 1.66699C5.39795 1.66699 1.66699 5.39795 1.66699 10.0003C1.66699 14.6027 5.39795 18.3337 10.0003 18.3337ZM10.0003 16.667C13.6822 16.667 16.667 13.6822 16.667 10.0003C16.667 6.31843 13.6822 3.33366 10.0003 3.33366C6.31843 3.33366 3.33366 6.31843 3.33366 10.0003C3.33366 13.6822 6.31843 16.667 10.0003 16.667Z" fill="#999999"/>
<path fill-rule="evenodd" clip-rule="evenodd" d="M10.0003 5.00033C10.4606 5.00033 10.8337 5.37342 10.8337 5.83366V9.16699H14.167C14.6272 9.16699 15.0003 9.54009 15.0003 10.0003C15.0003 10.4606 14.6272 10.8337 14.167 10.8337H10.8337V14.167C10.8337 14.6272 10.4606 15.0003 10.0003 15.0003C9.54009 15.0003 9.16699 14.6272 9.16699 14.167V10.8337H5.83366C5.37342 10.8337 5.00033 10.4606 5.00033 10.0003C5.00033 9.54009 5.37342 9.16699 5.83366 9.16699H9.16699V5.83366C9.16699 5.37342 9.54009 5.00033 10.0003 5.00033Z" fill="#999999"/>
</svg>
